<svg version="1.0" xmlns="http://www.w3.org/2000/svg"  width="2.5rem" height="2.5rem" viewBox="670.000000 200 10.000000 1100.000000"  preserveAspectRatio="xMidYMid meet">  
    <g transform="translate(0.000000,3800.000000) scale(0.100000,-0.100000)" fill="#088516" stroke="none"> 
        <path d="M10113 35781 c-66 -49 -149 -105 -184 -124 -35 -19 -93 -52 -129 -74 -36 -22 -81 -47 -100 -56 -145 -65 -172 -77 -177 -77 -3 0 -19 -6 -36 -14 -42 -19 -266 -94 -337 -112 -52 -14 -110 -28 -245 -60 -33 -8 -100 -21 -150 -29 -49 -9 -124 -22 -165 -30 -77 -16 -274 -39 -460 -55 -58 -5 -159 -14 -225 -20 -66 -6 -214 -15 -330 -20 -192 -9 -526 -29 -830 -50 -66 -4 -165 -13 -220 -19 -55 -6 -140 -16 -190 -21 -100 -10 -161 -19 -350 -50 -71 -12 -152 -26 -180 -30 -126 -21 -227 -40 -236 -45 -8 -6 -88 -25 -189 -46 -47 -10 -231 -64 -265 -79 -11 -5 -69 -25 -130 -45 -60 -21 -132 -48 -160 -60 -27 -13 -61 -26 -75 -30 -14 -5 -52 -20 -85 -35 -33 -15 -75 -34 -94 -41 -93 -38 -454 -233 -566 -307 -67 -44 -225 -159 -235 -172 -3 -3 -43 -37 -89 -74 -189 -153 -409 -370 -511 -504 -14 -18 -45 -59 -70 -90 -25 -32 -64 -84 -88 -117 -24 -33 -70 -97 -102 -143 -33 -45 -60 -84 -60 -87 0 -3 -28 -53 -61 -113 -81 -140 -209 -388 -209 -403 0 -6 -6 -25 -14 -42 -8 -18 -24 -61 -35 -97 -12 -36 -26 -74 -31 -85 -7 -17 -25 -73 -90 -290 -4 -16 -18 -82 -30 -145 -12 -63 -26 -128 -30 -145 -20 -67 -31 -431 -19 -642 6 -114 13 -211 15 -215 3 -4 11 -42 20 -85 50 -270 107 -447 230 -720 8 -17 14 -34 14 -38 0 -4 14 -24 30 -45 17 -21 30 -41 30 -44 0 -17 92 -146 105 -146 9 0 18 17 25 43 5 23 24 83 40 132 17 50 30 98 30 107 0 9 7 29 15 44 8 16 15 37 15 46 0 9 5 20 10 23 6 3 10 14 10 23 0 9 7 30 15 46 8 15 15 33 15 40 1 6 9 29 20 51 11 22 19 46 20 53 0 7 4 20 10 30 5 9 16 33 24 52 8 19 27 62 41 95 15 33 42 94 60 135 68 158 306 584 384 686 9 12 23 32 31 44 30 44 114 156 144 191 101 116 144 166 166 189 14 14 51 55 84 90 32 35 92 93 135 129 42 37 87 76 101 88 91 79 375 283 393 283 2 0 44 23 93 51 105 61 225 118 354 169 30 11 64 25 75 29 181 75 466 154 725 202 58 10 130 24 160 30 91 18 211 39 285 49 39 5 104 14 145 20 41 6 129 15 195 20 264 21 361 29 393 35 17 3 94 10 170 15 158 10 371 35 422 49 35 9 88 19 250 47 47 7 117 21 155 29 39 9 88 19 110 24 47 9 270 84 335 112 25 11 75 35 112 54 110 58 128 47 110 -63 -6 -37 -16 -96 -22 -132 -21 -136 -53 -282 -70 -325 -5 -11 -13 -38 -18 -60 -10 -39 -27 -90 -43 -130 -5 -11 -18 -45 -29 -75 -12 -30 -39 -93 -62 -139 -22 -46 -44 -93 -49 -105 -48 -112 -241 -396 -381 -561 -140 -165 -413 -412 -588 -532 -129 -88 -290 -186 -360 -220 -270 -129 -335 -158 -395 -182 -11 -5 -36 -15 -56 -24 -21 -9 -53 -19 -73 -22 -20 -4 -39 -11 -42 -16 -3 -5 -13 -9 -23 -9 -10 0 -41 -7 -67 -15 -94 -28 -270 -67 -389 -87 -96 -16 -173 -20 -382 -21 -258 -2 -263 -2 -284 20 l-23 22 33 63 c99 188 362 481 633 706 152 126 460 345 514 366 30 11 154 97 154 106 0 5 -21 7 -47 5 -27 -3 -84 -7 -128 -10 -44 -4 -105 -10 -135 -15 -115 -17 -246 -41 -275 -50 -254 -80 -324 -104 -348 -116 -16 -8 -36 -14 -45 -14 -22 0 -291 -136 -402 -203 -370 -223 -704 -528 -963 -880 -102 -138 -113 -155 -119 -190 -4 -20 0 -34 13 -46 16 -14 248 -134 314 -162 11 -4 61 -24 110 -45 50 -20 104 -42 120 -50 17 -7 62 -25 100 -39 39 -14 89 -34 113 -45 23 -11 51 -20 62 -20 10 0 21 -4 25 -9 3 -5 20 -13 38 -16 35 -8 74 -19 222 -64 55 -16 134 -37 175 -46 41 -9 95 -23 120 -31 25 -8 61 -14 81 -14 20 0 49 -4 65 -10 27 -9 120 -28 254 -52 171 -29 785 -29 985 0 33 5 96 14 140 21 44 6 105 18 135 25 30 8 78 19 105 26 137 30 257 63 400 112 98 33 130 46 280 118 179 85 210 100 225 109 51 31 294 178 308 186 60 36 136 89 169 118 21 18 66 56 101 83 159 123 248 201 372 324 275 273 613 716 775 1015 20 39 43 77 50 85 29 36 256 521 285 610 5 14 18 50 30 80 12 30 30 84 41 120 11 36 33 99 49 140 34 88 39 109 84 300 51 222 86 393 97 485 4 33 12 94 17 135 27 195 21 806 -8 973 -41 230 -82 395 -137 552 -31 89 -36 101 -116 265 -66 135 -96 180 -121 180 -7 0 -67 -40 -133 -89z"/> 
        <path d="M11830 30506 c-47 -43 -121 -113 -166 -155 -98 -93 -232 -197 -339 -265 -44 -28 -86 -57 -94 -64 -7 -7 -52 -38 -100 -69 -47 -30 -104 -68 -126 -82 -22 -15 -71 -45 -110 -66 -38 -21 -95 -51 -125 -68 -78 -42 -317 -162 -365 -182 -22 -10 -60 -26 -85 -37 -117 -51 -141 -62 -220 -93 -36 -15 -76 -31 -90 -35 -14 -5 -50 -18 -80 -30 -30 -11 -86 -32 -125 -44 -38 -13 -81 -28 -95 -34 -14 -6 -79 -27 -145 -47 -66 -20 -131 -40 -145 -45 -14 -4 -54 -15 -90 -24 -36 -10 -78 -22 -95 -28 -16 -5 -52 -14 -80 -19 -27 -5 -59 -14 -70 -19 -11 -4 -38 -11 -60 -14 -22 -3 -74 -15 -115 -27 -41 -12 -115 -27 -165 -35 -106 -16 -160 -28 -197 -42 -14 -6 -66 -14 -115 -17 -48 -3 -104 -10 -123 -15 -295 -76 -1238 -125 -1715 -90 -401 30 -607 50 -633 60 -13 6 -40 10 -61 10 -21 0 -55 7 -74 15 -20 8 -57 15 -81 15 -25 0 -65 6 -88 14 -24 8 -70 17 -103 21 -33 4 -94 15 -135 25 -41 11 -115 28 -165 40 -49 12 -121 31 -160 42 -38 11 -83 24 -100 29 -88 24 -271 83 -280 89 -13 9 -110 40 -125 40 -7 0 -26 6 -43 14 -107 46 -177 65 -177 48 0 -8 34 -58 50 -72 3 -3 50 -57 105 -120 140 -160 242 -258 397 -380 34 -27 69 -55 76 -61 20 -16 292 -199 297 -199 3 0 35 -19 72 -42 38 -22 88 -50 113 -62 25 -12 59 -30 75 -42 17 -11 86 -44 155 -73 69 -30 130 -57 135 -61 6 -4 37 -17 70 -28 33 -12 105 -38 160 -58 55 -20 118 -42 140 -49 22 -6 47 -14 55 -17 65 -23 118 -38 132 -38 10 0 38 -7 64 -16 25 -8 67 -19 93 -24 96 -17 146 -35 149 -52 5 -24 -31 -37 -121 -44 -40 -3 -81 -9 -92 -14 -11 -4 -79 -14 -152 -21 -259 -24 -897 22 -1118 81 -16 5 -56 11 -88 15 -32 4 -95 17 -140 30 -45 13 -102 27 -127 31 -25 4 -49 10 -55 14 -5 4 -26 11 -45 14 -19 4 -46 11 -60 16 -14 5 -59 18 -100 30 -41 12 -91 27 -110 34 -19 8 -60 21 -90 31 -30 9 -64 20 -75 24 -11 5 -58 23 -105 41 -47 18 -104 41 -127 51 -23 11 -44 19 -47 19 -19 0 -451 213 -537 266 -31 19 -60 34 -64 34 -4 0 -37 20 -74 43 -36 24 -104 69 -151 99 -81 53 -211 145 -237 168 -7 5 -27 20 -45 33 -122 82 -472 413 -596 562 -37 44 -69 82 -73 85 -12 10 -139 179 -139 185 0 3 -17 29 -39 58 -21 29 -60 90 -87 137 -58 103 -132 217 -145 226 -16 9 -5 -383 14 -513 9 -62 21 -130 26 -150 6 -21 11 -56 11 -79 0 -22 7 -63 15 -90 8 -27 15 -67 15 -89 0 -22 5 -58 11 -80 12 -45 23 -94 40 -175 11 -57 27 -116 54 -207 8 -28 15 -61 15 -72 0 -11 4 -22 9 -25 5 -4 12 -25 16 -49 4 -23 13 -51 19 -62 7 -11 15 -31 18 -45 7 -28 24 -79 45 -127 7 -17 13 -36 13 -41 0 -6 6 -23 14 -39 27 -54 46 -104 46 -120 0 -9 6 -24 13 -32 8 -9 28 -52 46 -96 18 -44 39 -91 46 -105 32 -61 44 -86 50 -100 3 -8 19 -37 35 -65 17 -27 57 -103 89 -167 32 -65 83 -152 112 -193 112 -157 144 -203 159 -225 8 -12 36 -51 62 -86 27 -35 48 -66 48 -69 0 -35 466 -527 655 -692 188 -164 262 -223 360 -289 22 -15 74 -52 115 -83 42 -31 84 -61 95 -68 38 -23 158 -98 184 -115 14 -10 40 -24 56 -32 17 -9 66 -36 110 -60 153 -85 337 -173 490 -236 44 -17 111 -45 149 -61 38 -16 75 -29 83 -29 8 0 29 -6 46 -14 51 -23 155 -56 176 -56 11 0 23 -4 26 -10 3 -5 15 -10 26 -10 11 0 32 -6 47 -14 15 -8 74 -24 132 -36 58 -12 113 -26 122 -31 10 -5 32 -9 50 -9 18 0 71 -9 118 -20 47 -11 104 -25 128 -30 23 -6 66 -10 95 -11 28 0 77 -5 107 -10 173 -30 665 -51 865 -37 272 20 641 66 698 87 13 5 50 12 83 16 32 4 93 16 134 27 41 11 100 26 130 33 64 16 118 31 255 75 55 17 116 36 135 41 69 21 116 38 167 63 29 14 57 26 62 26 8 0 51 18 171 71 130 58 394 195 460 239 8 6 22 13 30 17 8 4 33 18 55 32 22 14 45 28 50 31 38 19 205 136 340 237 226 170 253 204 118 149 -82 -33 -122 -46 -168 -57 -22 -5 -49 -13 -60 -18 -11 -5 -58 -19 -105 -30 -47 -12 -94 -26 -105 -31 -11 -5 -69 -18 -128 -30 -59 -11 -116 -25 -125 -30 -9 -5 -60 -14 -112 -19 -52 -6 -122 -15 -155 -20 -33 -5 -94 -14 -135 -21 -41 -6 -133 -13 -205 -14 -80 -1 -139 -7 -152 -14 -17 -9 -128 -11 -465 -8 -509 5 -720 15 -903 46 -71 11 -170 25 -220 30 -49 6 -101 14 -115 19 -14 5 -41 12 -60 15 -99 14 -213 37 -228 46 -9 5 -44 14 -77 20 -115 21 -194 42 -260 70 -11 5 -36 12 -55 16 -19 3 -39 10 -45 14 -5 4 -35 15 -65 25 -30 10 -73 25 -95 35 -22 10 -62 26 -90 36 -27 10 -59 24 -70 31 -11 7 -27 13 -35 13 -9 0 -58 25 -109 55 -51 30 -99 55 -107 55 -20 0 -218 106 -222 120 -7 20 7 43 21 32 6 -5 46 -19 87 -31 41 -12 83 -26 92 -31 9 -5 36 -12 60 -16 24 -3 52 -9 63 -14 11 -4 76 -18 145 -30 69 -12 134 -26 145 -31 11 -5 67 -14 125 -19 58 -5 130 -14 160 -20 30 -6 81 -15 114 -21 88 -16 599 -22 771 -10 154 11 293 25 355 35 19 3 78 10 130 17 52 7 100 15 105 19 6 4 35 10 65 14 67 8 132 22 225 48 39 10 86 23 105 28 51 12 182 50 205 59 18 8 94 33 205 68 25 8 52 18 60 22 9 5 30 12 48 16 18 4 81 29 140 57 171 79 183 84 272 119 47 18 114 52 150 75 51 32 316 193 409 249 70 42 398 277 436 312 11 10 42 36 70 58 311 249 726 691 960 1025 72 102 146 213 186 279 42 69 48 80 89 146 49 80 230 436 280 550 5 11 24 54 43 95 18 41 41 102 51 135 10 33 29 89 42 125 13 36 28 85 33 110 5 25 17 70 26 100 57 193 90 341 83 376 -3 15 -20 4 -88 -60z"/> 
</g> 
</svg> 